#Comment line ignore any data following # character 
#Hierarchical Translation and Rotation (.htr) file 
[Header]	
#Header keywords are followed by a single value 
FileType HTR		#Single word string
DataType HTRS		#Translation followed by rotation and scale data
FileVersion 1		#integer
NumSegments 84		#integer
NumFrames 2		#integer
DataFrameRate 30		#integer, data frame rate in this file
EulerRotationOrder ZYX
CalibrationUnits mm
RotationUnits Degrees
GlobalAxisofGravity Y
BoneLengthAxis Y
ScaleFactor 1.00
[SegmentNames&Hierarchy]
#CHILD	PARENT
MASTER GLOBAL
root MASTER
chest root
L_mid_tent01 root
R_mid_tent01 root
spine01 root
Bip01_Neck chest
L_humerus chest
R_humerus chest
weapon_bone chest
Bip01_Head Bip01_Neck
eye_left_bone Bip01_Head
eye_right_bone Bip01_Head
L_forearm L_humerus
L_front_hand L_forearm
L_weapon_bone L_forearm
L_front_hand01_01 L_front_hand
L_front_hand02_01 L_front_hand
L_front_hand03_01 L_front_hand
L_front_hand01_02 L_front_hand01_01
L_front_hand02_02 L_front_hand02_01
L_front_hand03_02 L_front_hand03_01
R_forearm R_humerus
R_front_hand R_forearm
R_weapon_bone R_forearm
R_front_hand01_01 R_front_hand
R_front_hand02_01 R_front_hand
R_front_hand03_01 R_front_hand
R_front_hand01_02 R_front_hand01_01
R_front_hand02_02 R_front_hand02_01
R_front_hand03_02 R_front_hand03_01
null_rope01_connect L_mid_tent01
Rope1_Seg01 null_rope01_connect
Rope1_Seg02 Rope1_Seg01
Rope1_Seg03 Rope1_Seg02
Rope1_Seg04 Rope1_Seg03
Rope1_Seg05 Rope1_Seg04
Rope1_Seg06 Rope1_Seg05
Rope1_Seg07 Rope1_Seg06
Rope1_Seg09 Rope1_Seg07
L_mid_hand01 Rope1_Seg09
L_mid_hand02 Rope1_Seg09
L_mid_hand03 Rope1_Seg09
null_rope02_connect R_mid_tent01
Rope2_Seg01 null_rope02_connect
Rope2_Seg02 Rope2_Seg01
Rope2_Seg03 Rope2_Seg02
Rope2_Seg04 Rope2_Seg03
Rope2_Seg05 Rope2_Seg04
Rope2_Seg06 Rope2_Seg05
Rope2_Seg07 Rope2_Seg06
Rope2_Seg09 Rope2_Seg07
R_mid_hand01 Rope2_Seg09
R_mid_hand02 Rope2_Seg09
R_mid_hand03 Rope2_Seg09
spine02 spine01
spine03 spine02
pelvis spine03
null_rope03_connect pelvis
null_rope04_connect pelvis
Rope3_Seg01 null_rope03_connect
Rope3_Seg02 Rope3_Seg01
Rope3_Seg03 Rope3_Seg02
Rope3_Seg04 Rope3_Seg03
Rope3_Seg05 Rope3_Seg04
Rope3_Seg06 Rope3_Seg05
Rope3_Seg07 Rope3_Seg06
Rope3_Seg08 Rope3_Seg07
Rope3_Seg09 Rope3_Seg08
R_rear_hand01 Rope3_Seg09
R_rear_hand02 Rope3_Seg09
R_rear_hand03 Rope3_Seg09
Rope4_Seg01 null_rope04_connect
Rope4_Seg02 Rope4_Seg01
Rope4_Seg03 Rope4_Seg02
Rope4_Seg04 Rope4_Seg03
Rope4_Seg05 Rope4_Seg04
Rope4_Seg06 Rope4_Seg05
Rope4_Seg07 Rope4_Seg06
Rope4_Seg08 Rope4_Seg07
Rope4_Seg09 Rope4_Seg08
L_rear_hand01 Rope4_Seg09
L_rear_hand02 Rope4_Seg09
L_rear_hand03 Rope4_Seg09
[BasePosition]
#SegmentName Tx, Ty, Tz, Rx, Ry, Rz, BoneLength
MASTER 0.000000 0.000000 0.000000 -90.000000 0.000000 0.000000 10.000000 
root 0.000000 0.000000 0.000000 0.000000 0.000000 0.000000 10.000000 
chest 0.000000 0.000000 0.000000 0.000000 0.000000 0.000000 10.000000 
L_mid_tent01 0.000000 0.000000 0.000000 0.000000 0.000000 0.000000 10.000000 
R_mid_tent01 0.000000 0.000000 0.000000 0.000000 0.000000 0.000000 10.000000 
spine01 0.000000 0.000000 0.000000 0.000000 0.000000 0.000000 10.000000 
Bip01_Neck 0.000000 0.000000 0.000000 0.000000 0.000000 0.000000 10.000000 
L_humerus 0.000000 0.000000 0.000000 0.000000 0.000000 0.000000 10.000000 
R_humerus 0.000000 0.000000 0.000000 0.000000 0.000000 0.000000 10.000000 
weapon_bone 0.000000 0.000000 0.000000 0.000000 0.000000 0.000000 10.000000 
Bip01_Head 0.000000 0.000000 0.000000 0.000000 0.000000 0.000000 10.000000 
eye_left_bone 0.000000 0.000000 0.000000 0.000000 0.000000 0.000000 10.000000 
eye_right_bone 0.000000 0.000000 0.000000 0.000000 0.000000 0.000000 10.000000 
L_forearm 0.000000 0.000000 0.000000 0.000000 0.000000 0.000000 10.000000 
L_front_hand 0.000000 0.000000 0.000000 0.000000 0.000000 0.000000 10.000000 
L_weapon_bone 0.000000 0.000000 0.000000 0.000000 0.000000 0.000000 10.000000 
L_front_hand01_01 0.000000 0.000000 0.000000 0.000000 0.000000 0.000000 10.000000 
L_front_hand02_01 0.000000 0.000000 0.000000 0.000000 0.000000 0.000000 10.000000 
L_front_hand03_01 0.000000 0.000000 0.000000 0.000000 0.000000 0.000000 10.000000 
L_front_hand01_02 0.000000 0.000000 0.000000 0.000000 0.000000 0.000000 10.000000 
L_front_hand02_02 0.000000 0.000000 0.000000 0.000000 0.000000 0.000000 10.000000 
L_front_hand03_02 0.000000 0.000000 0.000000 0.000000 0.000000 0.000000 10.000000 
R_forearm 0.000000 0.000000 0.000000 0.000000 0.000000 0.000000 10.000000 
R_front_hand 0.000000 0.000000 0.000000 0.000000 0.000000 0.000000 10.000000 
R_weapon_bone 0.000000 0.000000 0.000000 0.000000 0.000000 0.000000 10.000000 
R_front_hand01_01 0.000000 0.000000 0.000000 0.000000 0.000000 0.000000 10.000000 
R_front_hand02_01 0.000000 0.000000 0.000000 0.000000 0.000000 0.000000 10.000000 
R_front_hand03_01 0.000000 0.000000 0.000000 0.000000 0.000000 0.000000 10.000000 
R_front_hand01_02 0.000000 0.000000 0.000000 0.000000 0.000000 0.000000 10.000000 
R_front_hand02_02 0.000000 0.000000 0.000000 0.000000 0.000000 0.000000 10.000000 
R_front_hand03_02 0.000000 0.000000 0.000000 0.000000 0.000000 0.000000 10.000000 
null_rope01_connect 0.000000 0.000000 0.000000 0.000000 0.000000 0.000000 10.000000 
Rope1_Seg01 0.000000 0.000000 0.000000 0.000000 0.000000 0.000000 10.000000 
Rope1_Seg02 0.000000 0.000000 0.000000 0.000000 0.000000 0.000000 10.000000 
Rope1_Seg03 0.000000 0.000000 0.000000 0.000000 0.000000 0.000000 10.000000 
Rope1_Seg04 0.000000 0.000000 0.000000 0.000000 0.000000 0.000000 10.000000 
Rope1_Seg05 0.000000 0.000000 0.000000 0.000000 0.000000 0.000000 10.000000 
Rope1_Seg06 0.000000 0.000000 0.000000 0.000000 0.000000 0.000000 10.000000 
Rope1_Seg07 0.000000 0.000000 0.000000 0.000000 0.000000 0.000000 10.000000 
Rope1_Seg09 0.000000 0.000000 0.000000 0.000000 0.000000 0.000000 10.000000 
L_mid_hand01 0.000000 0.000000 0.000000 0.000000 0.000000 0.000000 10.000000 
L_mid_hand02 0.000000 0.000000 0.000000 0.000000 0.000000 0.000000 10.000000 
L_mid_hand03 0.000000 0.000000 0.000000 0.000000 0.000000 0.000000 10.000000 
null_rope02_connect 0.000000 0.000000 0.000000 0.000000 0.000000 0.000000 10.000000 
Rope2_Seg01 0.000000 0.000000 0.000000 0.000000 0.000000 0.000000 10.000000 
Rope2_Seg02 0.000000 0.000000 0.000000 0.000000 0.000000 0.000000 10.000000 
Rope2_Seg03 0.000000 0.000000 0.000000 0.000000 0.000000 0.000000 10.000000 
Rope2_Seg04 0.000000 0.000000 0.000000 0.000000 0.000000 0.000000 10.000000 
Rope2_Seg05 0.000000 0.000000 0.000000 0.000000 0.000000 0.000000 10.000000 
Rope2_Seg06 0.000000 0.000000 0.000000 0.000000 0.000000 0.000000 10.000000 
Rope2_Seg07 0.000000 0.000000 0.000000 0.000000 0.000000 0.000000 10.000000 
Rope2_Seg09 0.000000 0.000000 0.000000 0.000000 0.000000 0.000000 10.000000 
R_mid_hand01 0.000000 0.000000 0.000000 0.000000 0.000000 0.000000 10.000000 
R_mid_hand02 0.000000 0.000000 0.000000 0.000000 0.000000 0.000000 10.000000 
R_mid_hand03 0.000000 0.000000 0.000000 0.000000 0.000000 0.000000 10.000000 
spine02 0.000000 0.000000 0.000000 0.000000 0.000000 0.000000 10.000000 
spine03 0.000000 0.000000 0.000000 0.000000 0.000000 0.000000 10.000000 
pelvis 0.000000 0.000000 0.000000 0.000000 0.000000 0.000000 10.000000 
null_rope03_connect 0.000000 0.000000 0.000000 0.000000 0.000000 0.000000 10.000000 
null_rope04_connect 0.000000 0.000000 0.000000 0.000000 0.000000 0.000000 10.000000 
Rope3_Seg01 0.000000 0.000000 0.000000 0.000000 0.000000 0.000000 10.000000 
Rope3_Seg02 0.000000 0.000000 0.000000 0.000000 0.000000 0.000000 10.000000 
Rope3_Seg03 0.000000 0.000000 0.000000 0.000000 0.000000 0.000000 10.000000 
Rope3_Seg04 0.000000 0.000000 0.000000 0.000000 0.000000 0.000000 10.000000 
Rope3_Seg05 0.000000 0.000000 0.000000 0.000000 0.000000 0.000000 10.000000 
Rope3_Seg06 0.000000 0.000000 0.000000 0.000000 0.000000 0.000000 10.000000 
Rope3_Seg07 0.000000 0.000000 0.000000 0.000000 0.000000 0.000000 10.000000 
Rope3_Seg08 0.000000 0.000000 0.000000 0.000000 0.000000 0.000000 10.000000 
Rope3_Seg09 0.000000 0.000000 0.000000 0.000000 0.000000 0.000000 10.000000 
R_rear_hand01 0.000000 0.000000 0.000000 0.000000 0.000000 0.000000 10.000000 
R_rear_hand02 0.000000 0.000000 0.000000 0.000000 0.000000 0.000000 10.000000 
R_rear_hand03 0.000000 0.000000 0.000000 0.000000 0.000000 0.000000 10.000000 
Rope4_Seg01 0.000000 0.000000 0.000000 0.000000 0.000000 0.000000 10.000000 
Rope4_Seg02 0.000000 0.000000 0.000000 0.000000 0.000000 0.000000 10.000000 
Rope4_Seg03 0.000000 0.000000 0.000000 0.000000 0.000000 0.000000 10.000000 
Rope4_Seg04 0.000000 0.000000 0.000000 0.000000 0.000000 0.000000 10.000000 
Rope4_Seg05 0.000000 0.000000 0.000000 0.000000 0.000000 0.000000 10.000000 
Rope4_Seg06 0.000000 0.000000 0.000000 0.000000 0.000000 0.000000 10.000000 
Rope4_Seg07 0.000000 0.000000 0.000000 0.000000 0.000000 0.000000 10.000000 
Rope4_Seg08 0.000000 0.000000 0.000000 0.000000 0.000000 0.000000 10.000000 
Rope4_Seg09 0.000000 0.000000 0.000000 0.000000 0.000000 0.000000 10.000000 
L_rear_hand01 0.000000 0.000000 0.000000 0.000000 0.000000 0.000000 10.000000 
L_rear_hand02 0.000000 0.000000 0.000000 0.000000 0.000000 0.000000 10.000000 
L_rear_hand03 0.000000 0.000000 0.000000 0.000000 0.000000 0.000000 10.000000 
#Beginning of Data. Separated by tabs
#Fr	Tx	Ty	Tz	Rx	Ry	Rz	SF
[MASTER]
21 -0.000549 3651.843994 -1225.642456 0.001660 0.001660 0.001660 3852.033691
22 -0.000559 3721.818604 -1428.352905 0.001660 0.001660 0.001660 3986.492920
[root]
21 78.676025 -7.787833 719.115967 -105.628166 -25.873371 -90.448067 723.448914
22 66.419868 -21.417847 516.133423 -106.330246 -24.333324 -90.557785 520.830139
[chest]
21 -84.512650 -34.090519 0.000000 3.989013 -0.294447 -174.442429 91.129311
22 -84.512650 -34.090519 0.000000 4.160043 -0.337410 -174.171600 91.129311
[L_mid_tent01]
21 27.299364 22.177607 -249.918274 -1.657034 24.554457 67.427338 252.381149
22 27.299356 22.177610 -249.918274 -1.568394 25.359257 67.463089 252.381149
[R_mid_tent01]
21 23.228794 24.509907 226.238495 173.146988 -23.729881 57.465900 228.744751
22 23.228794 24.509907 226.238495 173.299759 -23.524519 56.993000 228.744751
[spine01]
21 -0.361383 -0.195265 0.000000 0.001845 0.001451 13.654368 0.410763
22 -0.361383 -0.195265 0.000000 0.001845 0.001451 13.654368 0.410763
[Bip01_Neck]
21 165.484543 71.581718 0.000119 176.643677 -1.657967 43.431911 180.302734
22 165.484543 71.581718 0.000119 176.643677 -1.657967 43.431911 180.302734
[L_humerus]
21 -13.983130 -135.272980 -120.471481 104.540138 81.919731 -164.905228 181.680161
22 -13.983130 -135.272980 -120.471481 106.780396 81.834755 -162.638992 181.680161
[R_humerus]
21 -13.983309 -135.273102 125.287651 -170.800690 -71.032845 -94.248680 184.909012
22 -13.983309 -135.273102 125.287651 -171.589981 -69.176048 -93.411102 184.909012
[weapon_bone]
21 235.964890 -300.705902 0.000000 0.000000 -89.951546 -128.212341 382.234833
22 235.964890 -300.705902 0.000000 0.000000 -89.951546 -128.212341 382.234833
[Bip01_Head]
21 213.610535 185.252823 17.751040 4.438949 -1.362266 -43.898827 283.307556
22 213.567352 185.373306 16.196060 4.439517 -1.244605 -43.899090 283.260651
[eye_left_bone]
21 -24.626970 125.451866 -64.772606 0.000000 -90.000000 -99.840431 143.318359
22 -24.626970 125.451866 -64.772606 0.000000 -90.000000 -99.840431 143.318359
[eye_right_bone]
21 -24.626970 125.451866 64.327362 0.000000 -89.965736 80.156380 143.117676
22 -24.626970 125.451866 64.327362 0.000000 -89.965736 80.156380 143.117676
[L_forearm]
21 322.776093 0.000000 -0.000119 0.000119 -0.002344 -95.807457 322.776093
22 322.776093 0.000000 -0.000119 0.000119 -0.002344 -95.807457 322.776093
[L_front_hand]
21 241.149185 -0.042021 -3.300071 -178.667953 -1.835447 -27.422350 241.171753
22 241.149185 -0.042021 -3.300071 -178.667953 -1.835447 -27.422344 241.171753
[L_weapon_bone]
21 156.183838 0.000000 0.000000 0.000014 0.000007 0.000001 156.183838
22 156.183838 0.000000 0.000000 0.000014 0.000007 0.000001 156.183838
[L_front_hand01_01]
21 86.095154 20.947098 -0.655860 -0.307662 -0.512638 68.898659 88.609184
22 86.095154 20.947098 -0.655860 -0.320916 -0.506937 70.186226 88.609184
[L_front_hand02_01]
21 86.935165 -11.437475 24.513514 145.311661 -56.611855 -50.692310 91.046425
22 86.935165 -11.437475 24.513514 146.956512 -57.330299 -52.653660 91.046425
[L_front_hand03_01]
21 86.637497 -14.123976 -20.424902 -145.445221 54.832184 -52.559975 90.126129
22 86.637497 -14.123976 -20.424902 -146.987762 55.547066 -54.435081 90.126129
[L_front_hand01_02]
21 71.020905 -0.000179 0.000030 0.000318 -0.002326 -105.580681 71.020905
22 71.020905 -0.000179 0.000030 0.000320 -0.002325 -105.661392 71.020905
[L_front_hand02_02]
21 71.020927 -0.000119 0.000060 0.000318 -0.002326 -105.580681 71.020927
22 71.020927 -0.000119 0.000060 0.000320 -0.002325 -105.661392 71.020927
[L_front_hand03_02]
21 71.020905 -0.000060 0.000060 0.000318 -0.002326 -105.580681 71.020905
22 71.020905 -0.000060 0.000060 0.000320 -0.002325 -105.661392 71.020905
[R_forearm]
21 322.776428 -0.000060 0.000030 0.209504 0.012586 -94.339050 322.776428
22 322.776428 -0.000060 0.000030 0.209504 0.012586 -94.339050 322.776428
[R_front_hand]
21 238.847015 -0.006795 2.210259 -2.635298 -10.645461 -26.312506 238.857239
22 238.847015 -0.006795 2.210259 -2.635298 -10.645460 -26.312500 238.857239
[R_weapon_bone]
21 155.664093 0.002503 -0.000030 0.003487 0.001180 -90.988930 155.664078
22 155.664093 0.002503 -0.000030 0.003487 0.001180 -90.988930 155.664078
[R_front_hand01_01]
21 87.624611 14.231146 22.918642 -147.366226 -57.494873 53.245708 91.683487
22 87.624611 14.231146 22.918642 -150.820541 -58.784569 57.311836 91.683487
[R_front_hand02_01]
21 89.356956 14.367283 -19.491137 147.772629 55.873177 55.617874 92.579636
22 89.356956 14.367283 -19.491137 151.027069 57.144753 59.518578 92.579636
[R_front_hand03_01]
21 87.286232 -22.307278 -0.143439 0.124412 -0.437303 -70.732681 90.091743
22 87.286232 -22.307278 -0.143439 0.144811 -0.432555 -73.232849 90.091743
[R_front_hand01_02]
21 71.020905 0.000060 0.000119 0.002323 -0.000334 106.381714 71.020905
22 71.020905 0.000060 0.000119 0.002323 -0.000334 106.381714 71.020905
[R_front_hand02_02]
21 71.020844 -0.000030 -0.000119 0.002323 -0.000334 106.381714 71.020836
22 71.020844 -0.000030 -0.000119 0.002323 -0.000334 106.381714 71.020836
[R_front_hand03_02]
21 71.020905 0.000000 0.000030 0.002323 -0.000334 106.381714 71.020905
22 71.020905 0.000000 0.000030 0.002323 -0.000334 106.381714 71.020905
[null_rope01_connect]
21 328.732483 0.000000 -0.000238 -141.716110 -50.005650 -169.201309 328.732483
22 328.732483 0.000000 -0.000238 -142.982071 -48.489708 -169.436890 328.732483
[Rope1_Seg01]
21 0.000000 0.000000 0.000000 71.288948 -48.821178 -144.782089 0.000000
22 0.000000 0.000000 0.000000 73.813789 -50.879276 -147.819427 0.000000
[Rope1_Seg02]
21 139.999863 -0.000179 0.000000 2.987348 -2.579866 -10.745333 139.999863
22 139.999863 -0.000179 0.000000 1.648619 -2.943020 -6.803350 139.999863
[Rope1_Seg03]
21 139.999924 0.000060 -0.000060 29.261862 -10.391768 -45.210880 139.999924
22 139.999924 0.000060 -0.000060 8.637541 -9.327614 -20.801313 139.999924
[Rope1_Seg04]
21 139.999924 -0.000060 -0.000119 52.193886 -30.472776 -48.258587 139.999924
22 139.999924 -0.000060 -0.000119 50.844036 -25.302704 -64.913811 139.999924
[Rope1_Seg05]
21 139.999832 0.000119 -0.000060 2.599387 -14.615071 3.943485 139.999832
22 139.999832 0.000119 -0.000060 8.688822 -23.448086 -5.812007 139.999832
[Rope1_Seg06]
21 139.999954 0.000119 -0.000060 -0.377262 -12.990189 8.179986 139.999954
22 139.999954 0.000119 -0.000060 -0.671522 -13.645931 9.032093 139.999954
[Rope1_Seg07]
21 139.999985 0.000060 0.000000 -0.652459 -9.355367 3.563941 139.999985
22 139.999985 0.000060 0.000000 -1.101160 -10.956581 3.516245 139.999985
[Rope1_Seg09]
21 121.602913 0.000119 -0.000089 -89.793175 -1.359789 0.847147 121.602913
22 121.602913 0.000119 -0.000089 -89.793175 -1.359789 0.847147 121.602913
[L_mid_hand01]
21 103.859421 1.038730 8.195221 112.678780 -49.980732 -18.276028 104.187431
22 103.859421 1.038730 8.195221 114.394852 -53.111439 -20.468830 104.187431
[L_mid_hand02]
21 105.572853 -4.139662 -10.864139 -152.571289 36.560638 -48.342640 106.211075
22 105.572853 -4.139662 -10.864139 -154.909470 38.072205 -52.197872 106.211075
[L_mid_hand03]
21 104.641464 17.579376 -3.913581 -11.926215 14.597148 53.941067 106.179977
22 104.641464 17.579376 -3.913581 -11.031654 15.280054 57.403896 106.179977
[null_rope02_connect]
21 328.732849 0.000179 -0.000119 -66.817200 71.991943 55.909527 328.732849
22 328.732849 0.000179 -0.000119 -65.314163 72.224144 58.626793 328.732849
[Rope2_Seg01]
21 0.000059 0.000085 0.000068 141.967270 19.326138 -43.553692 0.000124
22 0.000058 0.000081 0.000071 178.233871 24.323780 -45.379963 0.000123
[Rope2_Seg02]
21 139.999741 -0.000060 -0.000119 78.102242 -6.299683 -10.273217 139.999756
22 139.999741 -0.000060 -0.000119 35.335835 -11.361227 -5.786283 139.999756
[Rope2_Seg03]
21 140.000107 0.000030 0.000000 -2.643361 -8.632841 4.915558 140.000107
22 140.000107 0.000030 0.000000 1.002477 -7.702800 2.883958 140.000107
[Rope2_Seg04]
21 139.999802 0.000000 -0.000060 -1.389181 -6.213416 3.530050 139.999802
22 139.999802 0.000000 -0.000060 2.848216 -8.505171 1.744506 139.999802
[Rope2_Seg05]
21 139.999985 -0.000060 0.000119 12.663224 -43.639008 -0.747135 139.999985
22 139.999985 -0.000060 0.000119 11.211174 -52.344570 -0.392656 139.999985
[Rope2_Seg06]
21 139.999893 -0.000030 -0.000119 -5.648420 -45.961742 11.258798 139.999893
22 139.999893 -0.000030 -0.000119 -4.685954 -36.286205 7.864149 139.999893
[Rope2_Seg07]
21 139.999893 0.000060 -0.000060 -2.077363 -11.415154 2.247589 139.999893
22 139.999893 0.000060 -0.000060 -1.975438 -9.411360 1.529184 139.999893
[Rope2_Seg09]
21 121.338966 0.000089 -0.000060 33.793236 -1.359788 -0.847141 121.338966
22 121.338966 0.000089 -0.000060 33.793236 -1.359788 -0.847141 121.338966
[R_mid_hand01]
21 104.680779 11.144459 -10.335981 -37.204075 31.906813 37.576267 105.778534
22 104.680779 11.144459 -10.335981 -36.871494 32.306065 38.202835 105.778534
[R_mid_hand02]
21 104.070427 2.443552 8.231699 70.367462 -42.427391 14.067811 104.424065
22 104.070427 2.443552 8.231699 70.157997 -43.050724 14.375076 104.424065
[R_mid_hand03]
21 106.028137 -11.221827 -5.996406 -169.893616 12.226658 -47.211018 106.788818
22 106.028137 -11.221827 -5.996406 -170.040359 12.343988 -47.884888 106.788818
[spine02]
21 129.756927 0.001550 0.000119 -1.023900 -3.926965 6.770994 129.756927
22 129.756927 0.001550 0.000119 -1.023899 -3.926965 6.770993 129.756927
[spine03]
21 78.614113 0.087297 -4.898872 1.040681 4.146420 4.212376 78.766655
22 78.614128 0.087290 -4.898872 1.040680 4.146419 4.212375 78.766670
[pelvis]
21 169.435242 0.051022 0.000000 0.019518 -0.190233 -10.721436 169.435257
22 169.435242 0.051022 0.000000 0.019518 -0.190233 -10.721436 169.435257
[null_rope03_connect]
21 -1.257226 -2.466202 137.391083 -152.796967 -73.863205 -105.221008 137.418976
22 -1.257226 -2.466202 137.391083 -154.034241 -73.131012 -105.543541 137.418976
[null_rope04_connect]
21 -1.259640 -2.480268 -137.844437 -152.796967 -73.863205 -105.221008 137.872513
22 -1.259640 -2.480268 -137.844437 -154.034241 -73.131012 -105.543541 137.872513
[Rope3_Seg01]
21 -0.000011 -0.000314 -0.000153 -140.577896 -39.027264 -66.900436 0.000349
22 -0.000010 -0.000326 -0.000153 -138.757935 -37.832775 -69.351288 0.000360
[Rope3_Seg02]
21 139.999924 -0.000119 0.000060 6.152683 -19.642551 -32.405411 139.999924
22 139.999924 -0.000119 0.000060 7.908357 -21.285400 -33.627045 139.999924
[Rope3_Seg03]
21 139.999924 -0.000119 0.000119 3.856041 -5.336287 -4.647609 139.999924
22 139.999924 -0.000119 0.000119 4.241202 -5.714723 -4.884194 139.999924
[Rope3_Seg04]
21 139.999924 0.000119 0.000000 -0.646002 -4.386792 -7.293766 139.999924
22 139.999924 0.000119 0.000000 0.761028 -4.823781 -7.069022 139.999924
[Rope3_Seg05]
21 139.999924 -0.000238 0.000060 -137.666351 -9.567579 -21.193134 139.999924
22 139.999924 -0.000238 0.000060 -161.227936 -11.425387 -20.434877 139.999924
[Rope3_Seg06]
21 139.999893 -0.000119 -0.000060 -22.459867 30.766171 16.092728 139.999893
22 139.999893 -0.000119 -0.000060 -5.039998 24.710203 26.096241 139.999893
[Rope3_Seg07]
21 139.999771 0.000060 -0.000119 0.375841 9.566577 12.060690 139.999771
22 139.999771 0.000060 -0.000119 1.016939 9.159719 12.746407 139.999771
[Rope3_Seg08]
21 139.999985 -0.000060 0.000000 0.466952 4.619203 5.878599 139.999985
22 139.999985 -0.000060 0.000000 0.633456 4.426598 6.082149 139.999985
[Rope3_Seg09]
21 90.185997 -0.000179 -0.000060 89.793228 -1.359877 -0.847183 90.185997
22 90.185997 -0.000179 -0.000060 89.793228 -1.359877 -0.847183 90.185997
[R_rear_hand01]
21 103.366196 -6.073594 -10.757982 -164.972809 19.789427 -40.983841 104.101845
22 103.366196 -6.073594 -10.757982 -165.575058 20.224255 -42.745789 104.101845
[R_rear_hand02]
21 100.509819 12.039542 -7.992327 -30.544968 25.097786 38.729183 101.543350
22 100.509819 12.039542 -7.992327 -29.842968 25.960022 40.362484 101.543350
[R_rear_hand03]
21 101.539970 5.215704 5.435467 82.376854 -41.657902 8.948386 101.819031
22 101.539970 5.215704 5.435467 82.169113 -43.351929 9.256878 101.819031
[Rope4_Seg01]
21 -0.000059 -0.000106 0.000000 44.362583 -21.617958 -87.047569 0.000121
22 -0.000058 -0.000102 0.000000 44.531681 -21.313854 -87.370499 0.000117
[Rope4_Seg02]
21 139.999985 0.000060 0.000119 -0.859372 -38.644772 13.471315 139.999985
22 139.999985 0.000060 0.000119 -0.794865 -38.773521 13.618504 139.999985
[Rope4_Seg03]
21 139.999924 0.000000 -0.000238 16.884697 -34.666637 16.334885 139.999924
22 139.999924 0.000000 -0.000238 16.435619 -33.679737 15.827976 139.999924
[Rope4_Seg04]
21 139.999985 0.000000 0.000119 13.993291 -11.038635 10.114905 139.999985
22 139.999985 0.000000 0.000119 13.808104 -11.131114 9.964476 139.999985
[Rope4_Seg05]
21 139.999802 -0.000060 -0.000119 19.708334 -11.501670 14.488698 139.999802
22 139.999802 -0.000060 -0.000119 20.203007 -11.891611 14.905931 139.999802
[Rope4_Seg06]
21 139.999924 0.000000 0.000060 20.048796 -6.674996 19.543755 139.999924
22 139.999924 0.000000 0.000060 20.149038 -6.587710 19.959810 139.999924
[Rope4_Seg07]
21 139.999802 0.000000 0.000000 7.522503 0.515235 9.871225 139.999802
22 139.999802 0.000000 0.000000 7.331976 0.619685 9.816347 139.999802
[Rope4_Seg08]
21 139.999924 0.000000 0.000119 1.687694 0.956805 5.067659 139.999924
22 139.999924 0.000000 0.000119 1.619780 0.989583 5.062574 139.999924
[Rope4_Seg09]
21 90.185791 0.000060 0.000060 -135.617828 2.228885 0.850567 90.185791
22 90.185791 0.000060 0.000060 -135.617828 2.228885 0.850567 90.185791
[L_rear_hand01]
21 101.696655 -8.392275 -7.654577 -24.658646 -30.887184 128.783096 102.329041
22 101.696655 -8.392275 -7.654577 -22.991795 -32.088032 125.593971 102.329041
[L_rear_hand02]
21 102.726799 -1.568258 5.773216 80.302322 53.966492 168.267426 102.900848
22 102.726799 -1.568258 5.773216 79.542931 56.888847 167.348526 102.900848
[L_rear_hand03]
21 104.552910 9.721220 -10.420293 -169.691238 -22.530384 -125.995583 105.519653
22 104.552910 9.721220 -10.420293 -170.919907 -23.031248 -122.815849 105.519653
